<svg viewBox="0 0 70 70" width="100%" height="100%"><g fill="none" stroke="#1cadc8" stroke-miterlimit="10"><path d="M51.6 44.8c0 2.9-2.4 5.3-5.3 5.3M56.9 50.1c-2.9 0-5.3-2.4-5.3-5.3M51.6 55.4c0-2.9-2.4-5.3-5.3-5.3M56.9 50.1c-2.9 0-5.3 2.4-5.3 5.3M37 32.7c0 2.9-2.4 5.3-5.3 5.3M42.3 38c-2.9 0-5.3-2.4-5.3-5.3M37 43.3c0-2.9-2.4-5.3-5.3-5.3M42.3 38c-2.9 0-5.3 2.4-5.3 5.3M52.5 7c0 2.9-2.4 5.3-5.3 5.3M57.8 12.3c-2.9 0-5.3-2.4-5.3-5.3M52.5 17.7c0-2.9-2.4-5.3-5.3-5.3M57.8 12.3c-2.9 0-5.3 2.4-5.3 5.3"/><circle cx="17.2" cy="53.1" r="9.8"/><circle cx="17.2" cy="53.1" r="6.1"/><circle cx="17.2" cy="53.1" r="2.4"/><path d="M7.5 51.9V21.6c0-5.4 4.4-9.8 9.8-9.8s9.8 4.4 9.8 9.8v31M12.1 18v13.8M12.1 34v2.8"/><path d="M27.1 22.6h34.8V62H21.2M32 26.7h20M55.3 26.7h3.4"/></g></svg>