<svg viewBox="0 0 70 70" width="100%" height="100%"><g fill="none" stroke="#1cadc8" stroke-miterlimit="10"><path d="M67.3 66h-64M47.3 52.2v14M23.3 20.2V16l12-11.6 12 11.6v20M23.3 66.2V35.9"/><circle cx="35.3" cy="14" r="2"/><path d="M20.3 20h30M20.3 36h30M20.3 52h30M28.3 59.9h14M31.4 59.9V66M39.4 59.9V66M35.3 60v6M26.3 24h2M30.3 24h2M34.3 24h2M38.3 24h2M42.3 24h2"/><g><path d="M30.3 28h2M34.3 28h2M38.3 28h2M42.3 28h2"/></g><g><path d="M26.3 32h2M30.3 32h2M34.3 32h2M38.3 32h2M42.3 32h2"/></g><g><path d="M26.3 40h2M30.3 40h2M34.3 40h2M38.3 40h2M42.3 40h2"/></g><g><path d="M26.3 44h2M30.3 44h2M34.3 44h2M38.3 44h2"/></g><g><path d="M26.3 48h2M30.3 48h2M34.3 48h2M38.3 48h2M42.3 48h2"/></g><g><path d="M26.3 56h2M30.3 56h2M34.3 56h2M38.3 56h2M42.3 56h2"/></g><g><path d="M19.3 40h-13v23M12.3 34.1V29"/><path d="M16.3 40v-6H8.4v5.8M9.3 44h2M13.3 44h2M17.3 44h2"/><g><path d="M9.3 48h2M13.3 48h2M17.3 48h2"/></g></g><g><path d="M23.3 23c0 2.8-2.2 5-5 5M28.3 28c-2.8 0-5-2.2-5-5M23.3 33c0-2.8-2.2-5-5-5M28.3 28c-2.8 0-5 2.2-5 5"/></g><g><path d="M48.3 39c0 2.8-2.2 5-5 5M53.3 44c-2.8 0-5-2.2-5-5M48.3 49c0-2.8-2.2-5-5-5M53.3 44c-2.8 0-5 2.2-5 5"/></g><g><path d="M51.3 40h13v23M58.3 34.1V29"/><path d="M54.3 40v-6h8v5.8M61.3 44h-2M57.3 44h-2"/><g><path d="M61.3 48h-2M57.3 48h-2M53.3 48h-2"/></g></g></g></svg>