<svg viewBox="0 0 70 70" width="100%" height="100%"><g fill="none" stroke="#1cadc8" stroke-miterlimit="10"><path d="M35.3 31.8H63V36H35.3M9.7 36.1v23.5M60.8 36v23.2M36.3 11.5h23.4v14.9H36.3zM44.9 31.8v-5.3h6.4v5.3M32.1 59.2v-2.9L24.6 52l-7.4 4.3v2.9M32.1 45.6H17.2v-3.3c0-.6.4-1 1-1h12.9c.6 0 1 .4 1 1v3.3zM24.6 27.5v13.9M27.8 37.1H30c1.2 0 2.1-1 2.1-2.1V23.3c0-2.4-1.9-4.3-4.3-4.3h-6.4c-2.4 0-4.3 1.9-4.3 4.3V35c0 1.2 1 2.1 2.1 2.1h2.1M24.6 59.2V45.6M14 31.8H6.5V36H14M51.3 36v23.2M51.3 42.4h9.5M51.3 48.8h9.5M51.3 55.2h9.5M69.4 59.5H1.2"/><g><path d="M41.7 43.5c0 2.9-2.4 5.3-5.3 5.3M47 48.8c-2.9 0-5.3-2.4-5.3-5.3M41.7 54.2c0-2.9-2.4-5.3-5.3-5.3M47 48.8c-2.9 0-5.3 2.4-5.3 5.3"/></g><g><path d="M12.9 10.5c0 2.9-2.4 5.3-5.3 5.3M18.2 15.8c-2.9 0-5.3-2.4-5.3-5.3M12.9 21.1c0-2.9-2.4-5.3-5.3-5.3M18.2 15.8c-2.9 0-5.3 2.4-5.3 5.3"/></g></g></svg>