<svg xmlns="http://www.w3.org/2000/svg" viewBox="0 0 20 20"><path d="M9.3 1h1.4c.1 0 .1.1.2.1 3.8.5 6.4 2.6 7.6 6.2.2.7.3 1.4.4 2.1v1.4c0 .1-.1.2-.1.3-.4 3.8-3 6.8-6.7 7.7-.5.1-1.1.2-1.6.3H9.1c-.1 0-.1-.1-.2-.1-3.8-.5-6.4-2.6-7.6-6.2-.2-.7-.3-1.4-.5-2.1V9.3c0-.1.1-.2.1-.3.5-3.8 2.6-6.3 6.2-7.6.8-.2 1.5-.3 2.2-.4zM4.4 7.1v5.6c0 .6.2.8.8.8h9.7c.6 0 .8-.2.8-.8V7.4v-.3c-.1.1-.2.1-.3.2-1.6 1.4-3.2 2.8-4.9 4.2-.4.3-.6.3-1 0-.7-.6-1.5-1.3-2.2-1.9-1-.8-1.9-1.6-2.9-2.5zm.3-.6c0 .1 0 .1 0 0 1.7 1.6 3.5 3.1 5.3 4.7 1.8-1.5 3.6-3.1 5.3-4.6v-.1H4.7z" fill="#fff"/></svg>