<svg viewBox="0 0 70 70" width="100%" height="100%"><g fill="none" stroke="#1cadc8" stroke-miterlimit="10"><path d="M26 11.2v5h13.9v-5"/><path d="M39.9 14.2H44v-6h-6v-2l-2-2h-6l-2.1 2v2H22v6h4M31 8.2h3.9M58 56.3V18.1c0-1.1.9-2 2-2s2 .9 2 2v38.2l-2 4.3-2-4.3zM26 22.2h14v14H26z"/><path d="M29.8 29.2l2.1 2.1 4.2-4.2M33 54.2h-7v-14h14v7M30.8 45.1l4.2 4.2M35.1 45.1l-4.2 4.2"/><g><path d="M40 49.2c0 2.8-2.2 5-5 5M45 54.2c-2.8 0-5-2.2-5-5M40 59.2c0-2.8-2.2-5-5-5M45 54.2c-2.8 0-5 2.2-5 5"/></g><path d="M19.2 10.2H12v10M12 34.2v32h42v-56h-6.8"/><path d="M23 14.2h-7v9M45 62.2h5v-48h-7M16 31.2v31h23M41 62.2h2"/><g><path d="M12 22.2c0 2.8-2.2 5-5 5M17 27.2c-2.8 0-5-2.2-5-5M12 32.2c0-2.8-2.2-5-5-5M17 27.2c-2.8 0-5 2.2-5 5"/></g></g></svg>