<svg viewBox="0 0 70 70" width="100%" height="100%"><g fill="none" stroke="#1cadc8" stroke-miterlimit="10"><path d="M38.3 31.4v6.4l17 6.7c3 1.2 5 4.2 5 7.4v14.6"/><path d="M46.3 41.1v13.1l2 3.6v8.7M16.3 41.1v13.1l-2 3.6v8.7M20.2 39.5v11l.1 2h22v-13"/><path d="M40.3 38.4c-1.5 3.5-5 6-9.1 6-3.9 0-7.3-2.3-8.9-5.6M48.3 63.5h12M2.3 63.5h12M66.4 12c0 2.8-2.2 5-5 5M71.4 17c-2.8 0-5-2.2-5-5M66.4 22c0-2.8-2.2-5-5-5M71.4 17c-2.8 0-5 2.2-5 5M9.3 26.5c0 2.8-2.2 5-5 5M14.3 31.5c-2.8 0-5-2.2-5-5M9.3 36.5c0-2.8-2.2-5-5-5M14.3 31.5c-2.8 0-5 2.2-5 5M67.4 32v2M13.3 12.5v2M23.3 15.5h7.9v-3.3c2.1 2.1 5 3.3 8 3.3M44.4 14.9h2.8v-3c1.9 1.9 4.6 3 7.3 3"/><path d="M29.8 34.3c.5.2 1 .2 1.6.2.5 0 1-.1 1.4-.2 2.3-.7 4.4-2 6-3.8 1.7-1.8 2.8-4.1 3.2-6.5l.1-.6c.1-.8.2-1.6.2-2.4v-6c0-6.1-4.9-11-11-11s-11 4.9-11 11v6c0 .8.1 1.6.2 2.4l.1.6c.4 2.4 1.6 4.7 3.2 6.5l.5.5v6.8l-17 6.7c-3 1.2-5 4.2-5 7.4v14.6M54.5 28.6v6l14.2 5.7c2.6 1 4.2 3.5 4.2 6.2v12.2M42.4 28.5l.4.4v5.7"/><path d="M47.4 31.7c.4.1.9.2 1.3.2s.8-.1 1.2-.2c1.9-.6 3.7-1.7 5-3.2 1.4-1.5 2.3-3.4 2.7-5.5l.1-.5c.1-.7.2-1.3.2-2v-5c0-5.1-4.1-9.2-9.2-9.2-1.8 0-3.5.5-5 1.4"/></g></svg>