<svg viewBox="0 0 242.5 39.2" width="100%" height="100%"><g fill="#fff"><path d="M45.3 11.7h-4.1s-4.6 12-6.8 17.3c-.2.6-.9 1.1-1.5 1.3-.3.1-1-.5-1.3-1-2.7-4.3-8.1-13-8.1-13s4.1-4.7 5-5.8c.9-1 2.9-2.2 2.9-2.2v-.2h-7v.2s2 .4 2.2 1.4c.3 1.6-1 3-1 3L20.9 18c-.3.4-.7.7-1.2.9-.5.2-1.1.5-1.6.7v-11l1.3-.3v-.1H11v.2l1.7.3v21.5l-1.3.3v.2h8.4v-.2l-1.7-.3v-9.9c1.4-.5 1.9.1 2.5 1.1 1.7 2.9 3.4 5.7 5.2 8.5.3.5 1 .8 1.7.8h10.9v-.2s-.7-.1-1.1-.3c-1.3-.6-1.8-1.7-1.4-3.1.4-1.3.9-2.3.9-2.3h8.1l2.2 5.3-1.6.4v.2h8.4v-.2l-1.2-.3-7.4-18.5zM37 24.1c1.3-3.2 2.4-6.2 3.8-9.6 1.4 3.4 2.6 6.4 3.9 9.6H37zm51.8 6v-8.5s4.6-.2 5.4 3.1v-7.1c-1.4 3.8-5.4 3.4-5.4 3.4v-9c8.6 0 9.2 5.6 9.2 5.6v-5.9H82.3v.2s1 .2 1 1v17.3l-.9.4v.2h15.7v-5.5c-1.2 3.1-3.2 4.8-9.3 4.8zm72.6 0V12.2l1.5-.3v-.2h-8.4v.2l1.5.3v18l-1.5.4v.2h17.9v-5c-1.8 4.1-5.7 4.6-11 4.3zM104.7 7.4c0-2-2.7-6.8-2.7-6.8s-2.7 5-2.7 6.8c0 1.5 1.2 2.7 2.7 2.7s2.7-1.1 2.7-2.7zm-33 4.5l1.5.3v18l-1.5.4v.2h8.4v-.2l-1.5-.4v-18l1.5-.3v-.2h-8.4v.2zm-20.5-.2v5.6c1.4-4.2 3.4-5.6 6.6-5v17.9l-1.5.4v.2h8.4v-.2l-1.5-.4V12.1c3.7-.2 5.6 1.7 6.7 4.9v-4.3-1H51.2zm151.9 0H199s-6.2 16-6.8 17.2c-.6 1.2-1.2 1.5-1.7 1.6v.2h5.7v-.2s-.7-.2-1.1-.3c-1.3-.6-1.8-1.7-1.4-3.1.4-1.3.9-2.3.9-2.3h8.1l2.3 5.4-1.5.4v.2h8.4v-.2l-1.4-.3-7.4-18.6zm-8.3 12.4c1.3-3.2 2.4-6.2 3.8-9.6 1.4 3.4 2.6 6.4 3.9 9.6h-7.7zM180 30.2v-8.6s4.6-.2 5.4 3.1v-7.1C184 21.4 180 21 180 21v-9c8.6 0 9.2 5.6 9.2 5.6v-5.9h-15.7v.2s1 .2 1 1v17.3l-.9.4v.2h15.7v-5.5c-1.2 3.1-3.5 4.8-9.3 4.9zm-28.1-.8c-2.7-4.3-8.1-13-8.1-13s4.1-4.7 5-5.8c.9-1 2.9-2.2 2.9-2.2v-.2h-7v.2s2 .4 2.2 1.4c.3 1.6-1 3-1 3l-4.7 5.3c-.3.4-.7.7-1.2.9-.5.2-1.1.5-1.6.7V8.6l1.3-.3v-.1h-8.4v.2l1.7.3v21.5l-1.3.3v.2h8.4v-.2l-1.7-.3v-9.9c1.4-.5 1.9.1 2.5 1.1 1.7 2.9 3.4 5.7 5.2 8.5.3.5 1.1.8 1.9.8h5.8v-.2c-.8 0-1.6-.7-1.9-1.1zm-37.1-8.9c-1.4-.9-4.8-2.5-6.9-4.7-1.4-1.5-.5-3.6 1.5-3.9 5-.8 7.1 5.4 7.1 5.4v-4.8c-3.1-1.4-7.4-1.6-10.3-.5-3.9 1.6-4.7 6.2-1.3 8.8 1.3 1 1.5.9 4.5 2.7 4.7 2.7 4.7 6.6 1 7-3.8.4-5.8-2.2-7.5-5.3v4.5s5.2 2.3 9.7 1.1c2.4-.6 4.4-1.8 5-4.4.7-2.7-.6-4.6-2.8-5.9zm112.9-8.8v.2c1.3.1 1.9.7 1.9 2.3v9.4-.1l-9.1-10.9c-.5-.6-1.2-.9-1.9-.9h-5.2l1.3 1.8v14.7c0 1.6-.6 2.2-1.9 2.3v.2h4.3v-.2s-1.7-.5-1.7-3.5V14.3s1.4 1.6 1.9 2.2c2.9 3.5 8.2 9.8 10.3 12.3.6.7 1.3 1.4 2.1 1.9l.7.5v-2-14c0-3 1.7-3.5 1.7-3.5v-.2h-4.4z"/><path d="M240.5 37.7H2.4V1.8h93.7l-.4 1H3.3v33.9h236.2V2.8H108l-.3-1h132.8z"/></g></svg>