<svg xmlns="http://www.w3.org/2000/svg" viewBox="0 0 20 20"><path d="M10 19c-5 0-9-4.1-9-9.1C1 5 5.1 1 10 1c5 0 9 4.1 9 9.1 0 4.9-4.1 8.9-9 8.9zm4.5-6.1c0-.3 0-.4-.3-.5h-.1c-.7-.3-1.3-.5-2-.8-.2-.1-.3-.1-.5.1s-.4.4-.6.5c-.2.2-.2.2-.5.1 0 0-.1 0-.1-.1-.9-.6-1.6-1.2-2.2-2.1-.1-.3-.3-.5-.4-.7-.1-.2-.1-.3 0-.4l.6-.6c.2-.2.2-.4.1-.6-.3-.7-.6-1.4-.9-2.2 0-.1-.1-.1-.2-.1-.3 0-.5 0-.8.1-.3 0-.6.3-.8.6-.3.6-.4 1.3-.3 2 .2 1 .7 1.9 1.4 2.7.6.7 1.3 1.4 2 2 .6.5 1.3 1 2 1.3.7.3 1.5.5 2.3.2.6-.2 1.1-.4 1.2-1.1.1-.1.1-.3.1-.4z" fill="#fff"/></svg>