<svg viewBox="0 0 70 70" width="100%" height="100%"><g fill="none" stroke="#1cadc8" stroke-miterlimit="10"><path d="M49 14.2c3 0 5.5 2.4 5.5 5.5S52 25.1 49 25.1s-5.5-2.4-5.5-5.5c0-1.3.4-2.5 1.2-3.4"/><path d="M24.2 16.3c-5-2-8.1-4.1-7.8-5.4.5-1.9 8.6-1.4 18 1.2s16.6 6.2 16.1 8.2c-.2.7-1.4 1.1-3.3 1.1"/><path d="M61.6 32.1L28.4 64.2c-1.4 1.4-3.7 1.4-5.1-.1L4.5 44.6c-1.4-1.4-1.4-3.7.1-5.1L37.8 7.4c.7-.7 1.6-1 2.5-1h18.8c2 0 3.6 1.6 3.6 3.6l-.1 19.5c.1 1-.3 1.9-1 2.6zM35.2 62.9l2.9 1.9s2.7 1.6 4.8-1.6c2.2-3.2 11.7-19.9 11.7-19.9"/><path d="M33.44 24.718l11.25 11.655-16.692 16.113L16.747 40.83z" stroke-width="1.00001"/><path d="M23.6 40.4l5.1 5.3M28.2 36l5.1 5.3M32.7 31.6l5.1 5.2"/></g></svg>