<svg viewBox="0 0 70 70" width="100%" height="100%"><g fill="none" stroke="#1cadc8" stroke-miterlimit="10"><path d="M67.3 64.7h-64M46.3 56.7h-34v-4c0-1.1.9-2 2-2h30c1.1 0 2 .9 2 2v4z"/><path d="M12.3 56.7h-6v-12c0-1.1.9-2 2-2h2c1.1 0 2 .9 2 2v12zM52.3 56.7h-6v-12c0-1.1.9-2 2-2h2c1.1 0 2 .9 2 2v12zM12.3 32.7h-2c-1.1 0-2 .9-2 2v8M50.3 42.7v-8c0-1.1-.9-2-2-2h-22M29.3 39.7v4M29.3 45.7v2M29.3 35.7v2M38.3 41.7h2M52.3 64.7h-2l-2-4h-38l-2 4h-2v-8h46zM55.3 48.7h12M57.3 64.5v-4.8c0-1.1.9-2 2-2s2-.9 2-2v-4M65.3 64.5v-4.8c0-1.1-.9-2-2-2s-2-.9-2-2v-6M61.3 55.7v8.8"/><g><path d="M65.3 39.7h-8v-2l1-10h6l1 10zM63.6 48.7c.5-.5.8-1.2.8-2 0-1.7-1.3-3-3-3s-3 1.3-3 3c0 .8.3 1.5.8 2h4.4zM61.3 39.7v4"/></g><path d="M13.3 6.7h30v18h-30z"/><path d="M13.3 16.7l4-4 8 8h11M38.3 20.7h2"/><path d="M21.3 16.7l4-4 4 4h11M33.3 12.7h2"/><g><path d="M52.3 18.7c0 2.8-2.2 5-5 5M57.3 23.7c-2.8 0-5-2.2-5-5M52.3 28.7c0-2.8-2.2-5-5-5M57.3 23.7c-2.8 0-5 2.2-5 5"/></g><g><path d="M19.3 27.7c0 2.8-2.2 5-5 5M24.3 32.7c-2.8 0-5-2.2-5-5M19.3 37.7c0-2.8-2.2-5-5-5M24.3 32.7c-2.8 0-5 2.2-5 5"/></g><path d="M18.3 41.7h2"/></g></svg>