<svg viewBox="0 0 70 70" width="100%" height="100%"><g fill="none" stroke="#1cadc8" stroke-miterlimit="10"><path d="M25.9 42.7c-5.5 7.3-16.5 7.3-22 0v-1.8h22v1.8z"/><path d="M12.9 47.9v2l-1 12v1M14.9 39.9v-4l1-1h3v3"/><path d="M21.9 36.9h4v-15c0-6.1-4.9-11-11-11s-11 4.9-11 11v15h8M7.8 28.8l6-6.1M15.2 21.3l1.5-1.4M15 27l7.1-7M13.6 28.5l-1.4 1.4M16.9 47.9v2l1 12v1M29.9 51.9h10M39.9 62.9v-5.1c1.2-1.3 2-3 2-4.9v-3c0-1.1-.9-2-2-2h-10c-1.1 0-2 .9-2 2v3c0 1.9.8 3.6 2 4.9v5.1M41.9 52.9c0 3.9-3.1 7-7 7M29.9 47.9v-7c0-2.8 2.2-5 5-5s5 2.2 5 5v7M66.9 63.9h-64M66.9 59.9H55.3c-2.7 0-5.1-1.5-6.3-3.9l-4.1-12.1v-2h14M51.9 41.9v-7c0-1.7 1.3-3 3-3s3 1.3 3 3v1M51.7 59.5l-.8 2.4v2M55.9 38.9v3M47.9 38.9v3"/><path d="M61.9 11.1v44.8h2l1-1h2"/><circle cx="61.9" cy="8.9" r="2"/><path d="M49.9 8.9h9.7M65.9 22.9v18M65.9 18.9v2M65.9 42.9v2M63.9 8.9h3"/><g><path d="M43.9 24.9c0 2.8-2.2 5-5 5M48.9 29.9c-2.8 0-5-2.2-5-5M43.9 34.9c0-2.8-2.2-5-5-5M48.9 29.9c-2.8 0-5 2.2-5 5"/></g><g><path d="M31.9 6.9c0 2.8-2.2 5-5 5M36.9 11.9c-2.8 0-5-2.2-5-5M31.9 16.9c0-2.8-2.2-5-5-5M36.9 11.9c-2.8 0-5 2.2-5 5"/></g></g></svg>