<svg viewBox="0 0 70 70" width="100%" height="100%"><g fill="none" stroke="#1cadc8" stroke-miterlimit="10"><path d="M8 61V37c0-1.1.9-2 2-2v-2l-.9-.9c-.7-.7-1.1-1.7-1.1-2.7 0-3.9 2.4-7.3 6.1-8.6h.1V15H20v5.8c3.6 1.3 6 4.7 6 8.5v.1c0 1-.4 2-1.1 2.7l-.9.9v2c1.1 0 2 .9 2 2v26c0 .6-.4 1-1 1H11M14 19h6M15 40h11M26 60H15M11 40h2M11 60h2M24 35h-7M13 35h2"/><g><path d="M40 20h12v4H40zM42 16h8v4h-8zM62 61V24H40c-5.5 0-10 4.5-10 10v28c0 1.1.9 2 2 2h24.1"/><path d="M55 58c-1.7 0-3-1.3-3-3V34c0-1.7 1.3-3 3-3s3 1.3 3 3v21c0 1.7-1.3 3-3 3zM48 58H34V35c0-1.7 1.3-3 3-3h11v26z"/></g><g><path d="M42.4 16.3L31.1 5l-3 3 2.4 2.4c2 2 2 5.1 0 7.1l-6.3 6.3M31.2 10.8L33.9 8"/></g><path d="M3 64h6M58 64h9"/></g></svg>