<svg viewBox="0 0 100.5 112.5" width="100%" height="100%"><g fill="none" stroke="#fff" stroke-miterlimit="10"><path d="M33.1 39.4h16.6v-5.5c3.5 3.5 8.3 5.5 13.3 5.5h3.2M60.1 61.5v13.1l23.5 7.2c4 1.2 6.9 4.7 7.3 8.8l1.9 15.8v1.5"/><path d="M47.5 66.4c.8.2 1.6.3 2.4.3.7 0 1.4-.1 2.1-.3 3.4-1 6.5-3 8.9-5.6 2.5-2.7 4.2-6.1 4.8-9.7l.2-.9c.2-1.2.3-2.3.3-3.5v-12M32.9 34.6v11.8c0 1.2.1 2.4.3 3.5l.2.9c.7 3.6 2.3 7 4.8 9.7l1.4 1.6v12.4l-24.1 8.2c-3.9 1.3-6.8 4.7-7.2 8.8l-2 14.9v1.5M36.2 17.9h26.7v-5c0-1.8-1.5-3.3-3.3-3.3h-3.3a6.7 6.7 0 0 0-13.4 0h-3.3c-1.8 0-3.3 1.5-3.3 3.3v5z"/><path d="M36.5 17.9c-5.3 4-8.6 10.4-8.6 17.4v5.6c0 7-.8 20.2-2.4 27l-.4 1.8h14.7M62.7 17.9c5.3 4 8.6 10.4 8.6 17.4v5.6c0 7 .8 20.2 2.4 27l.4 1.8h-14M69.5 77.3l-3.3 19.8v2l3.4 6v2.8M79.6 107.9v-6.7H92M19.6 107.9v-6.7H7M29.4 78.1l3.5 19v2l-3.3 6v2.8M36.2 76.2l3.3 20 .1 3.4h20v-3.4l3.4-20"/><path d="M63.4 75.4c-2.3 5.4-7.6 9.2-13.8 9.2-6 0-11.2-3.5-13.6-8.6M81.2 11.2c0 4.6-3.7 8.3-8.3 8.3M89.6 19.6c-4.6 0-8.3-3.7-8.3-8.3M81.2 27.9c0-4.6-3.7-8.3-8.3-8.3M89.6 19.6c-4.6 0-8.3 3.7-8.3 8.3"/><g><path d="M11.2 54.6c0 4.6-3.7 8.3-8.3 8.3M19.6 62.9c-4.6 0-8.3-3.7-8.3-8.3M11.2 71.2c0-4.6-3.7-8.3-8.3-8.3M19.6 62.9c-4.6 0-8.3 3.7-8.3 8.3"/></g><path d="M86.2 51.2v3.4M16.2 24.6v3.3"/></g></svg>