<svg viewBox="0 0 100.5 112.5" width="100%" height="100%"><g fill="none" stroke="#fff" stroke-miterlimit="10"><path d="M34.5 14.8v8.5h23.9v-8.5"/><path d="M58.4 19.9h7.1V9.6H55.1V6.2l-3.4-3.5H41.4l-3.5 3.4v3.5H27.6v10.3h6.9M43.1 9.6h6.8M89.6 92.3V26.7c0-1.9 1.5-3.4 3.4-3.4s3.4 1.5 3.4 3.4v65.6L93 99.6l-3.4-7.3zM10.4 37.1c0 4.7-3.8 8.6-8.6 8.6M19 45.7c-4.7 0-8.6-3.8-8.6-8.6M10.4 54.3c0-4.7-3.8-8.6-8.6-8.6M19 45.7c-4.7 0-8.6 3.8-8.6 8.6M22.9 13H10.5v20.7"/><path d="M10.5 57.7v51.6h72.1V13H71M29.4 19.9H17.3v18.9"/><path d="M63.7 102.4h12.1V19.9h-12M17.3 52.6v49.8h36.1M29.3 42.3l15.5-6.9h3.4l15.5 6.9v17.2c0 4.4-1.9 8.5-5.1 11.4l-10.3 9.2h-3.4l-10.3-9.2c-3.3-2.9-5.1-7.1-5.1-11.4V42.3zM46.5 35.4v44.7M29.3 56h34.4M25.9 30.2h6.9M56.8 30.2h3.5M63.7 30.2h3.4M25.9 86.9h10.3M56.8 102.4h3.5"/><g><path d="M62 78.3c0 4.7-3.8 8.6-8.6 8.6M70.6 86.9c-4.7 0-8.6-3.8-8.6-8.6M62 95.5c0-4.7-3.8-8.6-8.6-8.6M70.6 86.9c-4.7 0-8.6 3.8-8.6 8.6"/></g><path d="M25.9 93.8h10.3"/></g></svg>