<svg viewBox="0 0 70 70" width="100%" height="100%"><g fill="none" stroke="#1cadc8" stroke-miterlimit="10"><path d="M62.6 62.9c0 1.1-.9 2-2 2h-18c-1.1 0-2-.9-2-2V42.4c0-1.6.6-3.1 1.8-4.2L54.6 26v-6l2-1.6V14h-17v-4h4V8l1-1h16c2.8 0 5 2.2 5 5v2h-1c-1.1 0-2 .9-2 2v46.9zM62.6 17.9h-6"/><path d="M54.6 13.9l-10 10h-2M59.6 13.9h-3M43.6 9.9v4M54.3 31.9L45.2 41c-.4.4-.6.9-.6 1.4v18.5h14v-29h-4.3zM66.6 64.9h-64M7.6 35.9v-18h35M36.6 54.9h-29v-5M29.6 17.9v37M7.6 37.9c0 2.8-2.2 5-5 5M12.6 42.9c-2.8 0-5-2.2-5-5M7.6 47.9c0-2.8-2.2-5-5-5M12.6 42.9c-2.8 0-5 2.2-5 5M25.6 36.9h-4"/><path d="M11.6 39.9v-18h14v29h-14v-5M40.6 21.9h-7v29h3M37.6 36.9h-4"/></g></svg>